<svg width="30" height="25" viewBox="0 0 30 25" fill="none" xmlns="http://www.w3.org/2000/svg">
<path fill-rule="evenodd" clip-rule="evenodd" d="M10.8774 23.1723C10.8774 22.4616 11.4536 21.8854 12.1643 21.8854H19.2901C20.0008 21.8854 20.577 22.4616 20.577 23.1723V23.1723C20.577 23.8831 20.0008 24.4592 19.2901 24.4592H12.1643C11.4536 24.4592 10.8774 23.8831 10.8774 23.1723V23.1723Z" fill="#FF57F8"/>
<path fill-rule="evenodd" clip-rule="evenodd" d="M10.8774 1.53537C10.8774 0.824642 11.4536 0.24848 12.1643 0.24848L19.2901 0.24848C20.0008 0.24848 20.577 0.824642 20.577 1.53537V1.53537C20.577 2.2461 20.0008 2.82227 19.2901 2.82227L12.1643 2.82227C11.4536 2.82227 10.8774 2.2461 10.8774 1.53537V1.53537Z" fill="#FF57F8"/>
<path fill-rule="evenodd" clip-rule="evenodd" d="M4.99121 17.8239C4.99121 17.1132 5.56737 16.5371 6.2781 16.5371L24.0983 16.5371C24.809 16.5371 25.3852 17.1132 25.3852 17.8239V17.8239C25.3852 18.5347 24.809 19.1108 24.0983 19.1108L6.2781 19.1108C5.56737 19.1108 4.99121 18.5347 4.99121 17.8239V17.8239Z" fill="#FF57F8"/>
<path fill-rule="evenodd" clip-rule="evenodd" d="M4.99121 6.88352C4.99121 6.17279 5.56737 5.59662 6.2781 5.59662L24.0983 5.59662C24.809 5.59662 25.3852 6.17279 25.3852 6.88352V6.88352C25.3852 7.59425 24.809 8.17041 24.0983 8.17041L6.2781 8.17041C5.56737 8.17041 4.99121 7.59425 4.99121 6.88352V6.88352Z" fill="#FF57F8"/>
<path fill-rule="evenodd" clip-rule="evenodd" d="M0.763038 12.232C0.76943 11.5213 1.35075 10.95 2.06146 10.956L28.1722 11.178C28.8829 11.184 29.4538 11.7651 29.4475 12.4758V12.4758C29.4411 13.1865 28.8597 13.7577 28.149 13.7517L2.03831 13.5297C1.32761 13.5237 0.756646 12.9427 0.763038 12.232V12.232Z" fill="#FF57F8"/>
<rect x="1.25146" y="23.9592" width="23.2107" height="27.7076" transform="rotate(-90 1.25146 23.9592)" stroke="black"/>
</svg>
