<svg width="68" height="20" viewBox="0 0 68 20" fill="none" xmlns="http://www.w3.org/2000/svg">
<path d="M11.8235 17.6971V13.4979C11.8235 12.3933 10.9281 11.4979 9.8235 11.4979H9.55421C8.44964 11.4979 7.55421 12.3933 7.55421 13.4979V17.6971C7.55421 18.8016 6.65878 19.6971 5.55421 19.6971H2.36084C1.25627 19.6971 0.36084 18.8016 0.36084 17.6971V7.26276C0.36084 6.62382 0.666114 6.02334 1.18234 5.64685L7.61239 0.957339C7.95464 0.707736 8.36729 0.573242 8.79089 0.573242H10.6834C11.1195 0.573242 11.5437 0.715812 11.8913 0.979231L18.0493 5.64576C18.5483 6.02386 18.8414 6.61376 18.8414 7.23978V17.6971C18.8414 18.8016 17.946 19.6971 16.8414 19.6971H13.8235C12.7189 19.6971 11.8235 18.8016 11.8235 17.6971Z" fill="white"/>
<path d="M40.9059 14.1353V10.2798H37.5309V14.1353H35.7438V5.49854H37.5309V8.7915H40.9059V5.49854H42.6989V14.1353H40.9059ZM49.6188 8.55713C50.1578 9.23291 50.4274 10.0317 50.4274 10.9536C50.4274 11.8911 50.1578 12.6938 49.6188 13.3618C49.0797 14.0259 48.2614 14.3579 47.1637 14.3579C46.066 14.3579 45.2477 14.0259 44.7086 13.3618C44.1696 12.6938 43.9 11.8911 43.9 10.9536C43.9 10.0317 44.1696 9.23291 44.7086 8.55713C45.2477 7.88135 46.066 7.54346 47.1637 7.54346C48.2614 7.54346 49.0797 7.88135 49.6188 8.55713ZM47.1578 8.95557C46.6696 8.95557 46.2926 9.12939 46.027 9.47705C45.7653 9.8208 45.6344 10.313 45.6344 10.9536C45.6344 11.5942 45.7653 12.0884 46.027 12.436C46.2926 12.7837 46.6696 12.9575 47.1578 12.9575C47.6461 12.9575 48.0211 12.7837 48.2828 12.436C48.5446 12.0884 48.6754 11.5942 48.6754 10.9536C48.6754 10.313 48.5446 9.8208 48.2828 9.47705C48.0211 9.12939 47.6461 8.95557 47.1578 8.95557ZM55.2145 9.50635C55.0739 9.19775 54.7985 9.04346 54.3883 9.04346C53.9117 9.04346 53.5914 9.19775 53.4274 9.50635C53.3375 9.68213 53.2926 9.94385 53.2926 10.2915V14.1353H51.5992V7.76025H53.2223V8.69189C53.4293 8.35986 53.6246 8.12354 53.8082 7.98291C54.1324 7.73291 54.5524 7.60791 55.068 7.60791C55.5563 7.60791 55.9508 7.71533 56.2516 7.93018C56.4938 8.12939 56.6774 8.38525 56.8024 8.69775C57.0211 8.32275 57.2926 8.04736 57.6168 7.87158C57.9606 7.6958 58.3434 7.60791 58.7653 7.60791C59.0465 7.60791 59.3239 7.6626 59.5973 7.77197C59.8707 7.88135 60.1188 8.07275 60.3414 8.34619C60.5211 8.56885 60.6422 8.84229 60.7047 9.1665C60.7438 9.38135 60.7633 9.6958 60.7633 10.1099L60.7516 14.1353H59.0406V10.0688C59.0406 9.82666 59.0016 9.62744 58.9235 9.47119C58.775 9.17432 58.5016 9.02588 58.1031 9.02588C57.6422 9.02588 57.3239 9.21729 57.1481 9.6001C57.0582 9.80322 57.0133 10.0474 57.0133 10.3325V14.1353H55.3317V10.3325C55.3317 9.95361 55.2926 9.67822 55.2145 9.50635ZM67.7711 12.2603C67.7281 12.6392 67.5309 13.0239 67.1793 13.4146C66.6324 14.0356 65.8668 14.3462 64.8824 14.3462C64.0699 14.3462 63.3531 14.0845 62.7321 13.561C62.111 13.0376 61.8004 12.186 61.8004 11.0063C61.8004 9.90088 62.0797 9.05322 62.6383 8.46338C63.2008 7.87354 63.9293 7.57861 64.8239 7.57861C65.3551 7.57861 65.8336 7.67822 66.2594 7.87744C66.6852 8.07666 67.0367 8.39111 67.3141 8.8208C67.5641 9.19971 67.7262 9.63916 67.8004 10.1392C67.8434 10.4321 67.861 10.854 67.8531 11.4048H63.4821C63.5055 12.0454 63.7067 12.4946 64.0856 12.7524C64.316 12.9126 64.5934 12.9927 64.9176 12.9927C65.2614 12.9927 65.5406 12.895 65.7555 12.6997C65.8727 12.5942 65.9762 12.4478 66.066 12.2603H67.7711ZM66.1188 10.3032C66.0914 9.86182 65.9567 9.52783 65.7145 9.30127C65.4762 9.0708 65.1793 8.95557 64.8239 8.95557C64.4371 8.95557 64.1364 9.07666 63.9215 9.31885C63.7106 9.56104 63.5778 9.88916 63.5231 10.3032H66.1188Z" fill="white"/>
</svg>
