<svg width="30" height="25" viewBox="0 0 30 25" fill="none" xmlns="http://www.w3.org/2000/svg">
<path fill-rule="evenodd" clip-rule="evenodd" d="M10.8776 23.1721C10.8776 22.4614 11.4537 21.8852 12.1645 21.8852L19.2902 21.8852C20.0009 21.8852 20.5771 22.4614 20.5771 23.1721V23.1721C20.5771 23.8828 20.0009 24.459 19.2902 24.459L12.1645 24.459C11.4537 24.459 10.8776 23.8828 10.8776 23.1721V23.1721Z" fill="#FF57F8"/>
<path fill-rule="evenodd" clip-rule="evenodd" d="M10.8776 1.53513C10.8776 0.824398 11.4537 0.248236 12.1645 0.248236L19.2902 0.248236C20.0009 0.248236 20.5771 0.824398 20.5771 1.53513V1.53513C20.5771 2.24586 20.0009 2.82202 19.2902 2.82202L12.1645 2.82202C11.4537 2.82202 10.8776 2.24586 10.8776 1.53513V1.53513Z" fill="#FF57F8"/>
<path fill-rule="evenodd" clip-rule="evenodd" d="M4.99134 17.8237C4.99134 17.113 5.5675 16.5368 6.27823 16.5368L24.0984 16.5368C24.8092 16.5368 25.3853 17.113 25.3853 17.8237V17.8237C25.3853 18.5344 24.8092 19.1106 24.0984 19.1106L6.27823 19.1106C5.5675 19.1106 4.99134 18.5344 4.99134 17.8237V17.8237Z" fill="#FF57F8"/>
<path fill-rule="evenodd" clip-rule="evenodd" d="M4.99134 6.88327C4.99134 6.17254 5.5675 5.59638 6.27823 5.59638L24.0984 5.59638C24.8092 5.59638 25.3853 6.17254 25.3853 6.88327V6.88327C25.3853 7.594 24.8092 8.17017 24.0984 8.17017L6.27823 8.17017C5.5675 8.17017 4.99134 7.594 4.99134 6.88327V6.88327Z" fill="#FF57F8"/>
<path fill-rule="evenodd" clip-rule="evenodd" d="M0.763168 12.2317C0.769559 11.521 1.35088 10.9498 2.06159 10.9558L28.1723 11.1777C28.883 11.1838 29.454 11.7648 29.4476 12.4755V12.4755C29.4412 13.1862 28.8599 13.7575 28.1492 13.7514L2.03844 13.5295C1.32774 13.5235 0.756776 12.9424 0.763168 12.2317V12.2317Z" fill="#FF57F8"/>
</svg>
